<svg width="69" height="67" viewBox="0 0 69 67" fill="none">
						<g>
							<path
								d="M50.2324 16.6796L44.9052 11.5086L58.3572 3.34758C59.1178 2.88622 59.9756 3.783 59.4452 4.48496L50.2324 16.6796Z"
								fill="#FAF5DC"
							/>
							<path
								d="M45.0224 4.9622L42.7744 11.5087L37.4472 9.44039L43.714 4.11767C44.3387 3.58704 45.2849 4.19779 45.0224 4.9622Z"
								fill="#FAF5DC"
							/>
							<path
								d="M18.2695 16.6795L23.5967 11.5085L10.1447 3.34758C9.38415 2.88622 8.52634 3.783 9.05665 4.48496L18.2695 16.6795Z"
								fill="#FAF5DC"
							/>
							<path
								d="M23.4795 4.9622L25.7275 11.5087L31.0547 9.44039L24.7878 4.11767C24.1632 3.58704 23.217 4.19779 23.4795 4.9622Z"
								fill="#FAF5DC"
							/>
							<path
								d="M54.4942 19.4769C51.3463 12.9984 43.47 8.40607 34.2516 8.40607C24.9703 8.40607 17.0494 13.0614 13.9453 19.6097L18.2696 24.9531H50.2325L54.4942 19.4769Z"
								fill="#95D6A4"
							/>
							<path
								d="M52.3632 30.1241H59.9733C60.496 30.1241 60.6739 30.8009 60.2149 31.0439L50.2324 36.3292L52.3632 30.1241Z"
								fill="#FAF5DC"
							/>
							<path
								d="M16.1387 30.1241H8.5286C8.00586 30.1241 7.82803 30.8009 8.28697 31.0439L18.2695 36.3292L16.1387 30.1241Z"
								fill="#FAF5DC"
							/>
							<path
								d="M52.3633 22.8848H16.1387L14.0079 27.0216L16.642 37.2489C16.9598 38.4829 17.7408 39.5527 18.8243 40.2681C21.1111 41.7782 22.5314 44.3097 22.5314 47.0694V53.5331C22.5314 59.8647 27.6898 65.2863 34.2419 65.2863C34.2454 65.2829 34.2475 65.2809 34.2511 65.2775C34.2547 65.2809 34.2568 65.2829 34.2603 65.2863C40.8124 65.2863 45.9708 59.8647 45.9708 53.5331V47.0694C45.9708 44.3097 47.3909 41.778 49.6779 40.2681C50.7614 39.5527 51.5424 38.4829 51.8602 37.2489L54.4944 27.0216L52.3633 22.8848Z"
								fill="#95D6A4"
							/>
							<path
								d="M14.0079 27.0215L16.642 37.2488C16.9598 38.4828 17.7409 39.5527 18.8244 40.2682C21.1111 41.7783 22.5313 44.3097 22.5313 47.0693V53.533C22.5313 59.5182 27.1426 64.6834 33.1814 65.2316C28.9636 64.695 25.7275 61.0359 25.7275 56.6696V47.542C25.7275 43.4355 23.8277 39.763 20.6454 37.7179C20.191 37.4259 19.8705 36.992 19.743 36.4962L19.1241 34.0943C18.922 33.3097 19.6841 32.6137 20.4786 32.8571L27.9614 35.1507L30.7337 36.0006L32.12 36.4255V35.0148V32.1925V32.0885C32.12 28.41 29.8883 25.0767 26.4254 23.5827L24.8075 22.8848H16.1385L14.0079 27.0215Z"
								fill="#78C2A4"
							/>
							<path
								d="M34.252 65.284L34.1985 65.2842C34.2155 65.2842 34.232 65.288 34.2491 65.288C34.2502 65.2864 34.2511 65.2853 34.252 65.284Z"
								fill="#78C2A4"
							/>
							<path
								d="M52.3632 22.8848L48.0108 21.4344C47.6547 21.3157 47.3896 21.0235 47.3134 20.6656L46.8388 18.4368C46.7307 17.9291 46.2522 17.5777 45.7195 17.6146L43.4274 17.7734C43.0261 17.8011 42.6431 17.6073 42.4368 17.272L41.2551 15.3514C40.9829 14.909 40.4168 14.7287 39.9274 14.9284L37.8066 15.7939C37.4331 15.9463 37.003 15.8805 36.696 15.6239L34.9461 14.1611C34.5464 13.8271 33.9552 13.8271 33.5556 14.1611L31.8046 15.6248C31.4982 15.8809 31.0691 15.9465 30.6964 15.7944L28.5742 14.9284C28.0848 14.7287 27.5187 14.909 27.2465 15.3514L26.0648 17.272C25.8586 17.6072 25.4755 17.8011 25.0743 17.7734L22.7821 17.6146C22.2495 17.5777 21.7709 17.9292 21.6628 18.4368L21.1882 20.6656C21.1121 21.0235 20.8469 21.3157 20.4908 21.4344L16.1384 22.8848L15.62 23.891L28.9235 32.1925V53.6882C28.9235 56.389 30.9575 58.8008 33.7273 59.0571C36.9045 59.3513 39.5777 56.9338 39.5777 53.9105V32.1925L52.8813 23.891L52.3632 22.8848Z"
								fill="#B3E59F"
							/>
							<path
								d="M28.9238 35.2951H24.7462C23.4139 35.2951 22.2213 34.4929 21.7535 33.282L19.3349 27.0216L28.9238 32.1926V35.2951Z"
								fill="#FFE07D"
							/>
							<path
								d="M25.1276 26.4179L20.9309 24.6074C19.878 24.1531 18.9307 23.4963 18.1467 22.6767L6.98856 11.0125C6.55248 10.5567 5.77376 10.9378 5.89178 11.5491L7.73964 21.1152C8.319 24.1147 10.5524 26.561 13.5504 27.48L28.9239 32.1925V32.0882C28.9238 29.6361 27.4361 27.4139 25.1276 26.4179Z"
								fill="#CCF49F"
							/>
							<path
								d="M39.5781 35.2951H43.7556C45.0879 35.2951 46.2805 34.4929 46.7484 33.282L49.167 27.0216L39.5781 32.1926V35.2951Z"
								fill="#FFE07D"
							/>
							<path
								d="M43.3743 26.4179L47.571 24.6074C48.6239 24.1531 49.5712 23.4963 50.3552 22.6767L61.5133 11.0125C61.9494 10.5567 62.7281 10.9378 62.6101 11.5491L60.7622 21.1152C60.1829 24.1147 57.9495 26.561 54.9515 27.48L39.578 32.1925V32.0882C39.5781 29.6361 41.0658 27.4139 43.3743 26.4179Z"
								fill="#CCF49F"
							/>
							<path
								d="M42.5607 17.4213C42.5171 17.3736 42.4713 17.3279 42.4368 17.2719L41.2552 15.3513C40.983 14.9089 40.4168 14.7284 39.9274 14.9282L37.8066 15.7938C37.4331 15.9462 37.0029 15.8804 36.696 15.6238L34.9461 14.161C34.5464 13.827 33.9552 13.827 33.5557 14.161L31.8047 15.6247C31.4984 15.8808 31.0692 15.9464 30.6965 15.7943L28.5743 14.9282C28.0849 14.7285 27.5189 14.9089 27.2467 15.3514L26.0651 17.272C26.0207 17.344 25.9648 17.4062 25.9056 17.4644L30.1771 21.5588C30.1934 21.5744 30.2097 21.5901 30.2259 21.6057C32.1831 23.5008 33.1854 26.1363 33.1854 28.8198V32.1927C33.1854 32.7639 33.6624 33.2269 34.2508 33.2269C34.8392 33.2269 35.3162 32.7639 35.3162 32.1927V28.7819C35.3162 26.1158 36.3039 23.4953 38.2405 21.6047C38.2536 21.5921 38.2666 21.5794 38.2796 21.5668L42.5607 17.4213Z"
								fill="#CCF49F"
							/>
							<path
								d="M31.833 57.4428L29.9206 55.1223V41.5003C29.9206 40.9659 29.4743 40.5327 28.9238 40.5327C28.3732 40.5327 27.9269 40.9659 27.9269 41.5003V52.7033L27.5713 52.2718C27.2273 51.8544 26.5998 51.7868 26.1701 52.1207C25.7401 52.4545 25.6705 53.0634 26.0145 53.4808L30.2761 58.6518C30.473 58.8907 30.7627 59.0149 31.0551 59.0149C31.2735 59.0149 31.4935 58.9455 31.6771 58.8028C32.1074 58.4689 32.177 57.8601 31.833 57.4428Z"
								fill="black"
							/>
							<path
								d="M61.7421 21.2933L63.9973 9.61833C64.079 9.19491 63.8625 8.76993 63.4662 8.5759C63.07 8.38199 62.5892 8.46572 62.287 8.78155L54.4737 16.9492C53.9598 16.1325 53.3618 15.3514 52.6803 14.614L62.7458 1.75171C63.0349 1.38234 63.0132 0.865902 62.6944 0.520661C62.3754 0.175291 61.8491 0.0981404 61.4392 0.336816L45.4447 9.65407C45.2586 9.57434 45.0701 9.49822 44.8815 9.42262L46.929 2.46645C47.05 2.0558 46.8791 1.61676 46.5086 1.38609C46.1382 1.15541 45.6559 1.18805 45.3217 1.46595L37.8809 7.6568C36.6893 7.51334 35.4768 7.43813 34.2507 7.43813C33.0243 7.43813 31.8116 7.51321 30.6202 7.65655L23.18 1.46607C22.8459 1.18805 22.3635 1.15567 21.9931 1.38621C21.6227 1.61676 21.4519 2.0558 21.5727 2.46658L23.6199 9.42197C23.4319 9.49731 23.245 9.57459 23.0596 9.6542L7.06272 0.336816C6.65296 0.0981404 6.1265 0.17542 5.80752 0.520661C5.48853 0.865902 5.467 1.38247 5.75608 1.75171L15.8226 14.6153C15.1414 15.3525 14.5409 16.1319 14.0272 16.9481L6.21489 8.78168C5.91278 8.46585 5.43204 8.38212 5.0357 8.57603C4.63936 8.76993 4.42285 9.19491 4.50459 9.61846L6.75982 21.2934C7.3954 24.5842 9.79869 27.2659 13.0542 28.3389L13.2839 29.1563H6.54982C6.09381 29.1563 5.696 29.4567 5.58369 29.8855C5.47138 30.3145 5.67314 30.7627 6.07387 30.974L15.1381 35.7558L15.6477 37.5693C16.0471 38.991 16.9569 40.2209 18.2094 41.0324C20.2915 42.3815 21.5346 44.6382 21.5346 47.0692V53.533C21.5346 60.424 27.1325 66.1296 34.0133 66.2518C34.0936 66.2532 34.1735 66.254 34.2535 66.254C37.6075 66.254 40.7624 65.0037 43.16 62.7185C45.6153 60.3783 46.9676 57.2501 46.9676 53.9103V47.0692C46.9676 45.9734 47.2286 44.8743 47.7226 43.8906C47.9639 43.4103 47.7583 42.831 47.2633 42.5969C46.7683 42.3627 46.1716 42.5623 45.9305 43.0427C45.3047 44.289 44.9739 45.6813 44.9739 47.0692V53.9103C44.9739 56.7266 43.8337 59.3643 41.7631 61.3377C39.6931 63.3105 36.9553 64.3678 34.0497 64.317C28.2482 64.2139 23.5281 59.3763 23.5281 53.533V47.0692C23.5281 43.9902 21.9535 41.1318 19.3163 39.4229C18.4637 38.8705 17.8439 38.0314 17.5712 37.0601L15.3166 29.0358L19.3801 30.2814L20.8021 33.7038C21.4426 35.258 22.9707 36.2624 24.6953 36.2624H27.9271V37.3633C27.9271 37.8977 28.3734 38.3309 28.9239 38.3309C29.4744 38.3309 29.9207 37.8977 29.9207 37.3633V32.088C29.9207 29.2563 28.1982 26.6835 25.5324 25.5335L21.3357 23.723C20.6939 23.4462 20.1045 23.0872 19.5719 22.6553L21.3353 22.1742C21.6939 22.0764 21.9664 21.7926 22.0418 21.4386L22.6514 18.5752L25.2902 18.7581L29.7486 23.0315C31.9763 25.1668 33.254 28.1345 33.254 31.1734V33.2264C33.254 33.7608 33.7003 34.194 34.2508 34.194C34.8013 34.194 35.2476 33.7608 35.2476 33.2264V31.1365C35.2476 28.0748 36.4775 25.1977 38.7106 23.0354L43.1582 18.7288L45.7763 18.5296L46.3873 21.3716C46.464 21.7282 46.7404 22.0128 47.1026 22.108L48.9923 22.6046C48.4437 23.0595 47.833 23.4353 47.1661 23.723L42.9695 25.5335C40.3037 26.6835 38.5812 29.2563 38.5812 32.088V55.1222L36.6687 57.4426C36.3249 57.8598 36.3945 58.4688 36.8244 58.8027C37.0082 58.9454 37.228 59.0148 37.4464 59.0148C37.7388 59.0148 38.0285 58.8904 38.2254 58.6516L42.487 53.4806C42.8309 53.0632 42.7612 52.4544 42.3314 52.1205C41.9016 51.7866 41.2741 51.8544 40.9302 52.2716L40.5746 52.7032V36.2624H43.8063C45.5309 36.2624 47.059 35.2582 47.6995 33.7038L49.1019 30.2875L53.1851 29.0358L50.9306 37.0602C50.6577 38.0314 50.0379 38.8705 49.1855 39.4229C48.7276 39.7196 48.6041 40.3204 48.9098 40.7649C49.1019 41.0443 49.4178 41.1954 49.7398 41.1954C49.93 41.1954 50.1223 41.1426 50.2923 41.0324C51.5449 40.2208 52.4547 38.991 52.8541 37.5693L53.3636 35.7558L62.4279 30.974C62.8285 30.7627 63.0302 30.3145 62.9181 29.8855C62.8058 29.4565 62.408 29.1563 61.9519 29.1563H55.2179L55.4476 28.3389C58.7032 27.2657 61.1065 24.5841 61.7421 21.2933ZM58.0295 4.57957L51.2549 13.2365C50.1637 12.2893 48.9254 11.4315 47.5545 10.6802L58.0295 4.57957ZM44.101 5.03073L43.0052 8.75342C42.1679 8.48985 41.3101 8.26536 40.4359 8.0801L44.101 5.03073ZM28.0658 8.07997C27.1917 8.26536 26.3341 8.48997 25.4968 8.75368L24.4009 5.03086L28.0658 8.07997ZM10.4724 4.57957L20.9486 10.681C19.5772 11.4325 18.337 12.2889 17.2462 13.2355L10.4724 4.57957ZM10.4715 31.0915H13.8275L14.4115 33.1701L10.4715 31.0915ZM27.9271 34.3272H24.6953C23.7907 34.3272 22.9892 33.8004 22.6532 32.9852L21.8512 31.039L27.9271 32.9015V34.3272ZM20.5259 25.4914L24.7226 27.3019C26.2618 27.9659 27.3704 29.2798 27.767 30.8229L13.8505 26.5572C11.198 25.7442 9.23183 23.5905 8.71932 20.9368L7.09928 12.5503L17.4161 23.335C18.2967 24.2556 19.3431 24.9812 20.5259 25.4914ZM37.3028 21.6654C35.9562 22.9693 34.9215 24.4957 34.2354 26.1593C33.5356 24.481 32.4896 22.9389 31.1497 21.6545L26.9855 17.663L28.1332 15.7976L30.9195 16.9347C31.2684 17.0771 31.6706 17.0153 31.9574 16.7751L34.2462 14.8567L36.5175 16.7706C36.8055 17.0133 37.2109 17.0751 37.5618 16.9301L40.3224 15.788L41.4603 17.6399L37.3028 21.6654ZM48.2141 20.3952L47.5489 17.3008C47.4465 16.8243 46.9939 16.4952 46.4952 16.5339L43.2535 16.7805L41.5885 14.071C41.3331 13.6553 40.8007 13.4867 40.3416 13.6765L37.3535 14.9125L34.9011 12.8461C34.5271 12.5308 33.9712 12.5303 33.5962 12.8444L31.1224 14.9181L28.1077 13.6877C27.6501 13.5009 27.1203 13.6696 26.8655 14.0835L25.1876 16.8106L21.9229 16.5844C21.4237 16.55 20.9769 16.8788 20.8757 17.3537L20.2121 20.4702L17.9792 21.0794L15.4447 18.43C18.5537 12.9946 26.0287 9.37346 34.2509 9.37346C38.4715 9.37346 42.5203 10.2958 45.9591 12.0407C49.1448 13.6572 51.5891 15.862 53.0566 18.4307L50.5821 21.0175L48.2141 20.3952ZM45.8487 32.9852C45.5129 33.8004 44.7113 34.3272 43.8067 34.3272H40.575V32.9013L46.6509 31.0389L45.8487 32.9852ZM58.0304 31.0915L54.0904 33.1701L54.6744 31.0915H58.0304ZM54.6514 26.5572L40.7347 30.823C41.1312 29.2799 42.2399 27.966 43.7792 27.302L47.976 25.4916C49.1587 24.9812 50.205 24.2556 51.0857 23.3351L61.4025 12.5504L59.7826 20.9368C59.2701 23.5904 57.3039 25.744 54.6514 26.5572Z"
								fill="black"
							/>
						</g>
						<defs>
							<clipPath id="clip0">
								<rect
									width="68.0503"
									height="66.055"
									fill="white"
									transform="translate(0.2258 0.199127)"
								/>
							</clipPath>
						</defs>
					</svg>
